<?xml version="1.0" standalone="no"?>
<!DOCTYPE svg PUBLIC "-//W3C//DTD SVG 20010904//EN"
 "http://www.w3.org/TR/2001/REC-SVG-20010904/DTD/svg10.dtd">
<svg version="1.0" xmlns="http://www.w3.org/2000/svg"
 width="165.000000pt" height="165.000000pt" viewBox="0 0 165.000000 165.000000"
 preserveAspectRatio="xMidYMid meet">
<metadata>
Created by potrace 1.14, written by Peter Selinger 2001-2017
</metadata>
<g transform="translate(0.000000,165.000000) scale(0.100000,-0.100000)"
fill="#000000" stroke="none">
<path d="M808 1375 c-2 -1 -27 -6 -56 -9 -30 -4 -64 -12 -75 -18 -12 -6 -23
-11 -24 -10 -6 3 -40 -11 -93 -36 -77 -38 -179 -143 -219 -226 -18 -36 -34
-72 -35 -79 -1 -6 -4 -17 -8 -22 -3 -6 -9 -30 -13 -55 -4 -25 -9 -48 -11 -52
-3 -5 0 -8 7 -8 7 0 8 -4 2 -12 -10 -15 -10 -32 1 -103 27 -175 141 -333 296
-408 36 -17 70 -32 75 -33 6 -1 28 -7 50 -12 54 -15 127 -18 200 -8 33 4 60 7
60 5 0 -1 11 4 25 11 14 8 27 14 30 15 16 1 90 39 90 47 0 4 7 8 14 8 13 0
115 94 141 131 41 56 89 164 100 224 7 37 7 183 1 194 -3 4 -8 23 -11 42 -21
117 -152 284 -271 345 -50 26 -71 34 -126 49 -5 2 -9 3 -10 5 -2 1 -25 4 -53
6 -27 2 -58 6 -67 8 -9 2 -18 3 -20 1z"/>
</g>
</svg>
